<svg width="41" height="12" viewBox="0 0 41 12" fill="none" xmlns="http://www.w3.org/2000/svg">
<path d="M35.2188 11.028C34.4255 11.028 33.6882 10.902 33.0068 10.65C32.3348 10.398 31.7515 10.0433 31.2568 9.586C30.7622 9.11934 30.3748 8.57334 30.0948 7.948C29.8242 7.32267 29.6888 6.64134 29.6888 5.904C29.6888 5.15734 29.8242 4.476 30.0948 3.86C30.3748 3.23467 30.7622 2.69334 31.2568 2.236C31.7515 1.76934 32.3348 1.41 33.0068 1.158C33.6882 0.906003 34.4255 0.780003 35.2188 0.780003C36.0215 0.780003 36.7588 0.906003 37.4308 1.158C38.1028 1.41 38.6862 1.76934 39.1808 2.236C39.6755 2.69334 40.0582 3.23467 40.3288 3.86C40.6088 4.476 40.7488 5.15734 40.7488 5.904C40.7488 6.64134 40.6088 7.32267 40.3288 7.948C40.0582 8.57334 39.6755 9.11934 39.1808 9.586C38.6862 10.0433 38.1028 10.398 37.4308 10.65C36.7588 10.902 36.0215 11.028 35.2188 11.028ZM35.2188 8.354C35.5268 8.354 35.8115 8.298 36.0728 8.186C36.3435 8.074 36.5768 7.91534 36.7728 7.71C36.9782 7.49534 37.1368 7.23867 37.2488 6.94C37.3608 6.632 37.4168 6.28667 37.4168 5.904C37.4168 5.52134 37.3608 5.18067 37.2488 4.882C37.1368 4.574 36.9782 4.31734 36.7728 4.112C36.5768 3.89734 36.3435 3.734 36.0728 3.622C35.8115 3.51 35.5268 3.454 35.2188 3.454C34.9108 3.454 34.6215 3.51 34.3508 3.622C34.0895 3.734 33.8562 3.89734 33.6508 4.112C33.4548 4.31734 33.3008 4.574 33.1888 4.882C33.0768 5.18067 33.0208 5.52134 33.0208 5.904C33.0208 6.28667 33.0768 6.632 33.1888 6.94C33.3008 7.23867 33.4548 7.49534 33.6508 7.71C33.8562 7.91534 34.0895 8.074 34.3508 8.186C34.6215 8.298 34.9108 8.354 35.2188 8.354Z" fill="#090909"/>
<path d="M24.7531 11.028C23.9598 11.028 23.2271 10.9067 22.5551 10.664C21.8924 10.412 21.3138 10.0573 20.8191 9.6C20.3338 9.14267 19.9558 8.60134 19.6851 7.976C19.4144 7.35067 19.2791 6.66 19.2791 5.904C19.2791 5.148 19.4144 4.45734 19.6851 3.832C19.9558 3.20667 20.3384 2.66534 20.8331 2.208C21.3278 1.75067 21.9111 1.40067 22.5831 1.158C23.2644 0.906003 24.0111 0.780003 24.8231 0.780003C25.7938 0.780003 26.6571 0.943336 27.4131 1.27C28.1784 1.59667 28.8084 2.06334 29.3031 2.67L27.1891 4.532C26.8811 4.17734 26.5451 3.91134 26.1811 3.734C25.8264 3.54734 25.4298 3.454 24.9911 3.454C24.6271 3.454 24.2958 3.51 23.9971 3.622C23.7078 3.734 23.4604 3.89734 23.2551 4.112C23.0498 4.32667 22.8911 4.58334 22.7791 4.882C22.6671 5.18067 22.6111 5.52134 22.6111 5.904C22.6111 6.268 22.6671 6.604 22.7791 6.912C22.8911 7.21067 23.0498 7.46734 23.2551 7.682C23.4604 7.89667 23.7031 8.06467 23.9831 8.186C24.2724 8.298 24.5944 8.354 24.9491 8.354C25.3224 8.354 25.6864 8.29334 26.0411 8.172C26.3958 8.04134 26.7738 7.822 27.1751 7.514L29.0231 9.782C28.4258 10.1833 27.7444 10.4913 26.9791 10.706C26.2138 10.9207 25.4718 11.028 24.7531 11.028ZM26.1531 9.362V5.638H29.0231V9.782L26.1531 9.362Z" fill="#090909"/>
<path d="M13.2919 11.028C12.4986 11.028 11.7612 10.902 11.0799 10.65C10.4079 10.398 9.82457 10.0433 9.3299 9.586C8.83524 9.11934 8.4479 8.57334 8.1679 7.948C7.89724 7.32267 7.7619 6.64134 7.7619 5.904C7.7619 5.15734 7.89724 4.476 8.1679 3.86C8.4479 3.23467 8.83524 2.69334 9.3299 2.236C9.82457 1.76934 10.4079 1.41 11.0799 1.158C11.7612 0.906003 12.4986 0.780003 13.2919 0.780003C14.0946 0.780003 14.8319 0.906003 15.5039 1.158C16.1759 1.41 16.7592 1.76934 17.2539 2.236C17.7486 2.69334 18.1312 3.23467 18.4019 3.86C18.6819 4.476 18.8219 5.15734 18.8219 5.904C18.8219 6.64134 18.6819 7.32267 18.4019 7.948C18.1312 8.57334 17.7486 9.11934 17.2539 9.586C16.7592 10.0433 16.1759 10.398 15.5039 10.65C14.8319 10.902 14.0946 11.028 13.2919 11.028ZM13.2919 8.354C13.5999 8.354 13.8846 8.298 14.1459 8.186C14.4166 8.074 14.6499 7.91534 14.8459 7.71C15.0512 7.49534 15.2099 7.23867 15.3219 6.94C15.4339 6.632 15.4899 6.28667 15.4899 5.904C15.4899 5.52134 15.4339 5.18067 15.3219 4.882C15.2099 4.574 15.0512 4.31734 14.8459 4.112C14.6499 3.89734 14.4166 3.734 14.1459 3.622C13.8846 3.51 13.5999 3.454 13.2919 3.454C12.9839 3.454 12.6946 3.51 12.4239 3.622C12.1626 3.734 11.9292 3.89734 11.7239 4.112C11.5279 4.31734 11.3739 4.574 11.2619 4.882C11.1499 5.18067 11.0939 5.52134 11.0939 5.904C11.0939 6.28667 11.1499 6.632 11.2619 6.94C11.3739 7.23867 11.5279 7.49534 11.7239 7.71C11.9292 7.91534 12.1626 8.074 12.4239 8.186C12.6946 8.298 12.9839 8.354 13.2919 8.354Z" fill="#090909"/>
<path d="M0 10.804V1.004H3.304V8.242H7.728V10.804H0Z" fill="#090909"/>
</svg>
