<svg width="25" height="24" viewBox="0 0 25 24" fill="none" xmlns="http://www.w3.org/2000/svg">
<path d="M19.765 21L13.465 14.7C12.965 15.1 12.39 15.4167 11.74 15.65C11.09 15.8833 10.3984 16 9.66504 16C7.84837 16 6.31087 15.3708 5.05254 14.1125C3.79421 12.8542 3.16504 11.3167 3.16504 9.5C3.16504 7.68333 3.79421 6.14583 5.05254 4.8875C6.31087 3.62917 7.84837 3 9.66504 3C11.4817 3 13.0192 3.62917 14.2775 4.8875C15.5359 6.14583 16.165 7.68333 16.165 9.5C16.165 10.2333 16.0484 10.925 15.815 11.575C15.5817 12.225 15.265 12.8 14.865 13.3L21.165 19.6L19.765 21ZM9.66504 14C10.915 14 11.9775 13.5625 12.8525 12.6875C13.7275 11.8125 14.165 10.75 14.165 9.5C14.165 8.25 13.7275 7.1875 12.8525 6.3125C11.9775 5.4375 10.915 5 9.66504 5C8.41504 5 7.35254 5.4375 6.47754 6.3125C5.60254 7.1875 5.16504 8.25 5.16504 9.5C5.16504 10.75 5.60254 11.8125 6.47754 12.6875C7.35254 13.5625 8.41504 14 9.66504 14Z" fill="#1C1B1F"/>
</svg>
